<svg width="20" height="20" viewBox="0 0 20 20" fill="none" xmlns="http://www.w3.org/2000/svg">
<g id="Chat Bubble">
<path id="Shape" fill-rule="evenodd" clip-rule="evenodd" d="M17.3333 3.83333L2.66662 3.83336C1.8382 3.83336 1.16663 4.50493 1.16663 5.33336V13.3334C1.16663 14.1618 1.8382 14.8334 2.66662 14.8334H10C10.1326 14.8334 10.2598 14.886 10.3536 14.9798L13.5 18.1262V15.3334C13.5 15.0572 13.7238 14.8334 14 14.8334H17.3333C18.1617 14.8334 18.8333 14.1618 18.8333 13.3334V5.33333C18.8333 4.5049 18.1617 3.83333 17.3333 3.83333ZM2.66662 2.83336L17.3333 2.83333C18.714 2.83333 19.8333 3.95262 19.8333 5.33333V13.3334C19.8333 14.7141 18.714 15.8334 17.3333 15.8334H14.5V19.3333C14.5 19.5356 14.3781 19.7179 14.1913 19.7953C14.0045 19.8727 13.7894 19.8299 13.6464 19.6869L9.79289 15.8334H2.66662C1.28591 15.8334 0.166626 14.7141 0.166626 13.3334V5.33336C0.166626 3.95265 1.28591 2.83336 2.66662 2.83336Z" fill="#C5C7CA"/>
</g>
</svg>
