<svg width="20" height="20" viewBox="0 0 20 20" fill="none" xmlns="http://www.w3.org/2000/svg">
<g id="Dots Horizontal">
<path id="Shape" fill-rule="evenodd" clip-rule="evenodd" d="M4.83337 10C4.83337 10.8284 4.1618 11.5 3.33337 11.5C2.50495 11.5 1.83337 10.8284 1.83337 10C1.83337 9.17157 2.50495 8.5 3.33337 8.5C4.1618 8.5 4.83337 9.17157 4.83337 10ZM11.5 10C11.5 10.8284 10.8285 11.5 10 11.5C9.17161 11.5 8.50004 10.8284 8.50004 10C8.50004 9.17157 9.17161 8.5 10 8.5C10.8285 8.5 11.5 9.17157 11.5 10ZM16.6667 11.5C17.4951 11.5 18.1667 10.8284 18.1667 10C18.1667 9.17157 17.4951 8.5 16.6667 8.5C15.8383 8.5 15.1667 9.17157 15.1667 10C15.1667 10.8284 15.8383 11.5 16.6667 11.5Z" fill="#C5C7CA"/>
</g>
</svg>
